<svg width="32" height="32" viewBox="0 0 32 32" fill="none" xmlns="http://www.w3.org/2000/svg">
<path opacity="0.4" d="M22.8492 0H8.34839C3.06406 0 0.0700684 2.99399 0.0700684 8.27832V22.7654C0.0700684 28.0497 3.06406 31.0437 8.34839 31.0437H22.8492C28.1336 31.0437 31.1138 28.0497 31.1138 22.7654V8.27832C31.1138 2.99399 28.1336 0 22.8492 0" fill="white"/>
<path d="M24.9976 14.8947V20.5381H19.3542" stroke="white" stroke-width="2.5" stroke-linecap="round" stroke-linejoin="round"/>
<path d="M24.9976 20.5381L18.3601 13.9006C18.2436 13.7841 18.1054 13.6916 17.9532 13.6285C17.801 13.5655 17.6378 13.533 17.4731 13.533C17.3083 13.533 17.1452 13.5655 16.993 13.6285C16.8407 13.6916 16.7025 13.7841 16.586 13.9006L13.9708 16.5158C13.8543 16.6323 13.7161 16.7248 13.5639 16.7878C13.4117 16.8509 13.2485 16.8834 13.0838 16.8834C12.919 16.8834 12.7559 16.8509 12.6037 16.7878C12.4514 16.7248 12.3132 16.6323 12.1967 16.5158L6.18628 10.5054" stroke="white" stroke-width="2.5" stroke-linecap="round" stroke-linejoin="round"/>
</svg>
