<svg width="25" height="33" viewBox="0 0 25 33" fill="none" xmlns="http://www.w3.org/2000/svg">
<path d="M6.70862 12.568V8.34884C6.70862 6.78227 7.32846 5.27986 8.43178 4.17213C9.5351 3.0644 11.0315 2.44208 12.5919 2.44208C14.1522 2.44208 15.6486 3.0644 16.7519 4.17213C17.8553 5.27986 18.4751 6.78227 18.4751 8.34884V12.568" stroke="#A388EF" stroke-width="4" stroke-linecap="round" stroke-linejoin="round"/>
<rect x="0.425781" y="11.2656" width="24.3322" height="21.3356" rx="4" fill="white"/>
<path d="M12.5918 21.4763C12.6822 21.4763 12.7706 21.5031 12.8458 21.5533C12.9209 21.6035 12.9795 21.6749 13.0141 21.7584C13.0487 21.8419 13.0578 21.9338 13.0401 22.0225C13.0225 22.1112 12.979 22.1926 12.915 22.2565C12.8511 22.3204 12.7697 22.364 12.681 22.3816C12.5923 22.3992 12.5004 22.3902 12.4169 22.3556C12.3334 22.321 12.262 22.2624 12.2118 22.1873C12.1616 22.1121 12.1348 22.0237 12.1348 21.9333C12.1348 21.8121 12.1829 21.6958 12.2686 21.6101C12.3544 21.5244 12.4706 21.4763 12.5918 21.4763" stroke="#A388EF" stroke-width="4.5" stroke-linecap="round" stroke-linejoin="round"/>
</svg>
