<svg width="36" height="37" viewBox="0 0 36 37" fill="none" xmlns="http://www.w3.org/2000/svg">
<circle cx="17.5917" cy="18.5217" r="17.5917" fill="white" fill-opacity="0.4"/>
<path d="M21.0348 7.65791C21.0348 7.21246 20.4962 6.98938 20.1813 7.30436L8.71102 18.7746C8.59059 18.8952 8.50859 19.0487 8.47539 19.2159C8.44218 19.383 8.45926 19.5563 8.52445 19.7137C8.58965 19.8712 8.70004 20.0058 8.84169 20.1005C8.98334 20.1953 9.14989 20.2459 9.32031 20.2461H13.6487C13.9248 20.2461 14.1487 20.47 14.1487 20.7461V29.3855C14.1487 29.8309 14.6872 30.054 15.0022 29.739L26.4725 18.2688C26.5929 18.1482 26.6749 17.9946 26.7081 17.8275C26.7413 17.6603 26.7242 17.4871 26.659 17.3296C26.5938 17.1722 26.4834 17.0376 26.3418 16.9428C26.2001 16.8481 26.0336 16.7974 25.8632 16.7973H21.5348C21.2587 16.7973 21.0348 16.5734 21.0348 16.2973V7.65791Z" fill="white"/>
</svg>
